<svg id="SvgjsSvg1006" width="978.859375" height="627.4375" xmlns="http://www.w3.org/2000/svg" version="1.1" xmlns:xlink="http://www.w3.org/1999/xlink" xmlns:svgjs="http://svgjs.com/svgjs"><defs id="SvgjsDefs1007"><pattern patternUnits="userSpaceOnUse" id="pattern_mark_0" width="300" height="300"><text x="150" y="100" fill="rgba(229,229,229,0.8)" font-size="18" transform="rotate(-45, 150, 150)" style="dominant-baseline: middle; text-anchor: middle;"></text></pattern><pattern patternUnits="userSpaceOnUse" id="pattern_mark_1" width="300" height="300"><text x="150" y="200" fill="rgba(229,229,229,0.8)" font-size="18" transform="rotate(-45, 150, 150)" style="dominant-baseline: middle; text-anchor: middle;"></text></pattern><marker id="SvgjsMarker1033" markerWidth="14" markerHeight="10" refX="10" refY="5" viewBox="0 0 14 10" orient="auto" markerUnits="userSpaceOnUse" stroke-dasharray="0,0"><path id="SvgjsPath1034" d="M0,0 L14,5 L0,10 L0,0" fill="#323232" stroke="#323232" stroke-width="1"></path></marker><marker id="SvgjsMarker1053" markerWidth="14" markerHeight="10" refX="10" refY="5" viewBox="0 0 14 10" orient="auto" markerUnits="userSpaceOnUse" stroke-dasharray="0,0"><path id="SvgjsPath1054" d="M0,0 L14,5 L0,10 L0,0" fill="#323232" stroke="#323232" stroke-width="1"></path></marker><marker id="SvgjsMarker1057" markerWidth="14" markerHeight="10" refX="10" refY="5" viewBox="0 0 14 10" orient="auto" markerUnits="userSpaceOnUse" stroke-dasharray="0,0"><path id="SvgjsPath1058" d="M0,0 L14,5 L0,10 L0,0" fill="#323232" stroke="#323232" stroke-width="1"></path></marker><marker id="SvgjsMarker1061" markerWidth="14" markerHeight="10" refX="10" refY="5" viewBox="0 0 14 10" orient="auto" markerUnits="userSpaceOnUse" stroke-dasharray="0,0"><path id="SvgjsPath1062" d="M0,0 L14,5 L0,10 L0,0" fill="#323232" stroke="#323232" stroke-width="1"></path></marker><marker id="SvgjsMarker1101" markerWidth="14" markerHeight="10" refX="10" refY="5" viewBox="0 0 14 10" orient="auto" markerUnits="userSpaceOnUse" stroke-dasharray="0,0"><path id="SvgjsPath1102" d="M0,0 L14,5 L0,10 L0,0" fill="#323232" stroke="#323232" stroke-width="1"></path></marker><marker id="SvgjsMarker1105" markerWidth="14" markerHeight="10" refX="10" refY="5" viewBox="0 0 14 10" orient="auto" markerUnits="userSpaceOnUse" stroke-dasharray="0,0"><path id="SvgjsPath1106" d="M0,0 L14,5 L0,10 L0,0" fill="#323232" stroke="#323232" stroke-width="1"></path></marker><marker id="SvgjsMarker1109" markerWidth="14" markerHeight="10" refX="10" refY="5" viewBox="0 0 14 10" orient="auto" markerUnits="userSpaceOnUse" stroke-dasharray="0,0"><path id="SvgjsPath1110" d="M0,0 L14,5 L0,10 L0,0" fill="#323232" stroke="#323232" stroke-width="1"></path></marker><marker id="SvgjsMarker1113" markerWidth="14" markerHeight="10" refX="10" refY="5" viewBox="0 0 14 10" orient="auto" markerUnits="userSpaceOnUse" stroke-dasharray="0,0"><path id="SvgjsPath1114" d="M0,0 L14,5 L0,10 L0,0" fill="#323232" stroke="#323232" stroke-width="1"></path></marker><marker id="SvgjsMarker1117" markerWidth="14" markerHeight="10" refX="10" refY="5" viewBox="0 0 14 10" orient="auto" markerUnits="userSpaceOnUse" stroke-dasharray="0,0"><path id="SvgjsPath1118" d="M0,0 L14,5 L0,10 L0,0" fill="#323232" stroke="#323232" stroke-width="1"></path></marker><marker id="SvgjsMarker1121" markerWidth="14" markerHeight="10" refX="10" refY="5" viewBox="0 0 14 10" orient="auto" markerUnits="userSpaceOnUse" stroke-dasharray="0,0"><path id="SvgjsPath1122" d="M0,0 L14,5 L0,10 L0,0" fill="#323232" stroke="#323232" stroke-width="1"></path></marker><marker id="SvgjsMarker1125" markerWidth="14" markerHeight="10" refX="10" refY="5" viewBox="0 0 14 10" orient="auto" markerUnits="userSpaceOnUse" stroke-dasharray="0,0"><path id="SvgjsPath1126" d="M0,0 L14,5 L0,10 L0,0" fill="#323232" stroke="#323232" stroke-width="1"></path></marker><marker id="SvgjsMarker1129" markerWidth="14" markerHeight="10" refX="10" refY="5" viewBox="0 0 14 10" orient="auto" markerUnits="userSpaceOnUse" stroke-dasharray="0,0"><path id="SvgjsPath1130" d="M0,0 L14,5 L0,10 L0,0" fill="#323232" stroke="#323232" stroke-width="1"></path></marker><marker id="SvgjsMarker1139" markerWidth="14" markerHeight="10" refX="10" refY="5" viewBox="0 0 14 10" orient="auto" markerUnits="userSpaceOnUse" stroke-dasharray="0,0"><path id="SvgjsPath1140" d="M0,0 L14,5 L0,10 L0,0" fill="#323232" stroke="#323232" stroke-width="1"></path></marker><marker id="SvgjsMarker1149" markerWidth="14" markerHeight="10" refX="10" refY="5" viewBox="0 0 14 10" orient="auto" markerUnits="userSpaceOnUse" stroke-dasharray="0,0"><path id="SvgjsPath1150" d="M0,0 L14,5 L0,10 L0,0" fill="#323232" stroke="#323232" stroke-width="1"></path></marker></defs><rect id="svgbackgroundid" width="978.859375" height="627.4375" fill="transparent"></rect><rect id="SvgjsRect1009" width="978.859375" height="627.4375" fill="url(#pattern_mark_0)"></rect><rect id="SvgjsRect1010" width="978.859375" height="627.4375" fill="url(#pattern_mark_1)"></rect><g id="SvgjsG1011" transform="translate(25.004464285714306,378.4397321428573)"><path id="SvgjsPath1012" d="M 0 4Q 0 0 4 0L 96 0Q 100 0 100 4L 100 66Q 100 70 96 70L 4 70Q 0 70 0 66Z" stroke="rgba(33,41,48,1)" stroke-width="2" fill-opacity="1" fill="#ffffff"></path><g id="SvgjsG1013"><text id="SvgjsText1014" font-family="微软雅黑" text-anchor="middle" font-size="13px" width="80px" fill="#323232" font-weight="400" align="middle" lineHeight="125%" anchor="middle" family="微软雅黑" size="13px" weight="400" font-style="" opacity="1" y="15.875" transform="rotate(0)"><tspan id="SvgjsTspan1015" dy="16" x="50"><tspan id="SvgjsTspan1016" style="text-decoration:;">数据文件读取</tspan></tspan><tspan id="SvgjsTspan1017" dy="16" x="50"><tspan id="SvgjsTspan1018" style="text-decoration:;">器</tspan></tspan></text></g></g><g id="SvgjsG1019" transform="translate(406.00446428571445,378.4397321428573)"><path id="SvgjsPath1020" d="M 0 4Q 0 0 4 0L 96 0Q 100 0 100 4L 100 66Q 100 70 96 70L 4 70Q 0 70 0 66Z" stroke="rgba(33,41,48,1)" stroke-width="2" fill-opacity="1" fill="#ffffff"></path><g id="SvgjsG1021"><text id="SvgjsText1022" font-family="微软雅黑" text-anchor="middle" font-size="13px" width="80px" fill="#323232" font-weight="400" align="middle" lineHeight="125%" anchor="middle" family="微软雅黑" size="13px" weight="400" font-style="" opacity="1" y="24.375" transform="rotate(0)"><tspan id="SvgjsTspan1023" dy="16" x="50"><tspan id="SvgjsTspan1024" style="text-decoration:;">数据管理器</tspan></tspan></text></g></g><g id="SvgjsG1025" transform="translate(244.00446428571422,532.4397321428563)"><path id="SvgjsPath1026" d="M 0 4Q 0 0 4 0L 96 0Q 100 0 100 4L 100 66Q 100 70 96 70L 4 70Q 0 70 0 66Z" stroke="rgba(33,41,48,1)" stroke-width="2" fill-opacity="1" fill="#ffffff"></path><g id="SvgjsG1027"><text id="SvgjsText1028" font-family="微软雅黑" text-anchor="middle" font-size="13px" width="80px" fill="#323232" font-weight="400" align="middle" lineHeight="125%" anchor="middle" family="微软雅黑" size="13px" weight="400" font-style="" opacity="1" y="24.375" transform="rotate(0)"><tspan id="SvgjsTspan1029" dy="16" x="50"><tspan id="SvgjsTspan1030" style="text-decoration:;">命令数据</tspan></tspan></text></g></g><g id="SvgjsG1031"><path id="SvgjsPath1032" d="M126.00446428571422 413.4397321428564L265.5044642857142 413.4397321428564L265.5044642857142 413.4397321428564L402.4044642857144 413.4397321428564" stroke="#323232" stroke-width="2" fill="none" marker-end="url(#SvgjsMarker1033)"></path><rect id="SvgjsRect1035" width="169" height="16" x="179.70446428571432" y="405.4397321428564" fill="#ffffff"></rect><text id="SvgjsText1036" font-family="微软雅黑" text-anchor="middle" font-size="13px" width="169px" fill="#323232" font-weight="400" align="top" lineHeight="16px" anchor="middle" family="微软雅黑" size="13px" weight="400" font-style="" opacity="1" y="402.8147321428564" transform="rotate(0)"><tspan id="SvgjsTspan1037" dy="16" x="264.2044642857143"><tspan id="SvgjsTspan1038" style="text-decoration:;">解析单个文件的数条命令数据</tspan></tspan></text></g><g id="SvgjsG1039" transform="translate(356.00446428571445,532.4397321428563)"><path id="SvgjsPath1040" d="M 0 4Q 0 0 4 0L 96 0Q 100 0 100 4L 100 66Q 100 70 96 70L 4 70Q 0 70 0 66Z" stroke="rgba(33,41,48,1)" stroke-width="2" fill-opacity="1" fill="#ffffff"></path><g id="SvgjsG1041"><text id="SvgjsText1042" font-family="微软雅黑" text-anchor="middle" font-size="13px" width="80px" fill="#323232" font-weight="400" align="middle" lineHeight="125%" anchor="middle" family="微软雅黑" size="13px" weight="400" font-style="" opacity="1" y="24.375" transform="rotate(0)"><tspan id="SvgjsTspan1043" dy="16" x="50"><tspan id="SvgjsTspan1044" style="text-decoration:;">命令数据</tspan></tspan></text></g></g><g id="SvgjsG1045" transform="translate(518.0044642857144,532.4397321428563)"><path id="SvgjsPath1046" d="M 0 4Q 0 0 4 0L 96 0Q 100 0 100 4L 100 66Q 100 70 96 70L 4 70Q 0 70 0 66Z" stroke="rgba(33,41,48,1)" stroke-width="2" fill-opacity="1" fill="#ffffff"></path><g id="SvgjsG1047"><text id="SvgjsText1048" font-family="微软雅黑" text-anchor="middle" font-size="13px" width="80px" fill="#323232" font-weight="400" align="middle" lineHeight="125%" anchor="middle" family="微软雅黑" size="13px" weight="400" font-style="" opacity="1" y="24.375" transform="rotate(0)"><tspan id="SvgjsTspan1049" dy="16" x="50"><tspan id="SvgjsTspan1050" style="text-decoration:;">命令数据</tspan></tspan></text></g></g><g id="SvgjsG1051"><path id="SvgjsPath1052" d="M294.0044642857142 531.4397321428563L294.0044642857142 490.4397321428564L456.00446428571445 490.4397321428564L456.00446428571445 452.03973214285645" stroke="#323232" stroke-width="2" fill="none" marker-end="url(#SvgjsMarker1053)"></path></g><g id="SvgjsG1055"><path id="SvgjsPath1056" d="M406.00446428571445 531.4397321428563L406.00446428571445 490.4397321428564L456.00446428571445 490.4397321428564L456.00446428571445 452.03973214285645" stroke="#323232" stroke-width="2" fill="none" marker-end="url(#SvgjsMarker1057)"></path></g><g id="SvgjsG1059"><path id="SvgjsPath1060" d="M568.0044642857144 531.4397321428563L568.0044642857144 490.4397321428564L456.00446428571445 490.4397321428564L456.00446428571445 452.03973214285645" stroke="#323232" stroke-width="2" fill="none" marker-end="url(#SvgjsMarker1061)"></path></g><g id="SvgjsG1063" transform="translate(429.00446428571445,541.4397321428563)"><path id="SvgjsPath1064" d="M 0 0L 120 0L 120 40L 0 40Z" stroke="none" fill="none"></path><g id="SvgjsG1065"><text id="SvgjsText1066" font-family="微软雅黑" text-anchor="middle" font-size="20px" width="120px" fill="#323232" font-weight="400" align="middle" lineHeight="125%" anchor="middle" family="微软雅黑" size="20px" weight="400" font-style="" opacity="1" y="2" transform="rotate(0)"><tspan id="SvgjsTspan1067" dy="25" x="60"><tspan id="SvgjsTspan1068" style="text-decoration:;">......</tspan></tspan></text></g></g><g id="SvgjsG1069" transform="translate(403.86160714285757,25.011160714285495)"><path id="SvgjsPath1070" d="M 0 4Q 0 0 4 0L 96 0Q 100 0 100 4L 100 66Q 100 70 96 70L 4 70Q 0 70 0 66Z" stroke="rgba(33,41,48,1)" stroke-width="2" fill-opacity="1" fill="#ffffff"></path><g id="SvgjsG1071"><text id="SvgjsText1072" font-family="微软雅黑" text-anchor="middle" font-size="13px" width="80px" fill="#323232" font-weight="400" align="middle" lineHeight="125%" anchor="middle" family="微软雅黑" size="13px" weight="400" font-style="" opacity="1" y="24.375" transform="rotate(0)"><tspan id="SvgjsTspan1073" dy="16" x="50"><tspan id="SvgjsTspan1074" style="text-decoration:;">API接口</tspan></tspan></text></g></g><g id="SvgjsG1075" transform="translate(177.79017857142918,148.58258928571428)"><path id="SvgjsPath1076" d="M 0 4Q 0 0 4 0L 96 0Q 100 0 100 4L 100 66Q 100 70 96 70L 4 70Q 0 70 0 66Z" stroke="rgba(33,41,48,1)" stroke-width="2" fill-opacity="1" fill="#ffffff"></path><g id="SvgjsG1077"><text id="SvgjsText1078" font-family="微软雅黑" text-anchor="middle" font-size="13px" width="80px" fill="#323232" font-weight="400" align="middle" lineHeight="125%" anchor="middle" family="微软雅黑" size="13px" weight="400" font-style="" opacity="1" y="24.375" transform="rotate(0)"><tspan id="SvgjsTspan1079" dy="16" x="50"><tspan id="SvgjsTspan1080" style="text-decoration:;">Get</tspan></tspan></text></g></g><g id="SvgjsG1081" transform="translate(328.5044642857149,148.58258928571428)"><path id="SvgjsPath1082" d="M 0 4Q 0 0 4 0L 96 0Q 100 0 100 4L 100 66Q 100 70 96 70L 4 70Q 0 70 0 66Z" stroke="rgba(33,41,48,1)" stroke-width="2" fill-opacity="1" fill="#ffffff"></path><g id="SvgjsG1083"><text id="SvgjsText1084" font-family="微软雅黑" text-anchor="middle" font-size="13px" width="80px" fill="#323232" font-weight="400" align="middle" lineHeight="125%" anchor="middle" family="微软雅黑" size="13px" weight="400" font-style="" opacity="1" y="24.375" transform="rotate(0)"><tspan id="SvgjsTspan1085" dy="16" x="50"><tspan id="SvgjsTspan1086" style="text-decoration:;">Post</tspan></tspan></text></g></g><g id="SvgjsG1087" transform="translate(479.21875000000034,148.58258928571416)"><path id="SvgjsPath1088" d="M 0 4Q 0 0 4 0L 96 0Q 100 0 100 4L 100 66Q 100 70 96 70L 4 70Q 0 70 0 66Z" stroke="rgba(33,41,48,1)" stroke-width="2" fill-opacity="1" fill="#ffffff"></path><g id="SvgjsG1089"><text id="SvgjsText1090" font-family="微软雅黑" text-anchor="middle" font-size="13px" width="80px" fill="#323232" font-weight="400" align="middle" lineHeight="125%" anchor="middle" family="微软雅黑" size="13px" weight="400" font-style="" opacity="1" y="24.375" transform="rotate(0)"><tspan id="SvgjsTspan1091" dy="16" x="50"><tspan id="SvgjsTspan1092" style="text-decoration:;">Delete</tspan></tspan></text></g></g><g id="SvgjsG1093" transform="translate(629.9330357142859,148.58258928571422)"><path id="SvgjsPath1094" d="M 0 4Q 0 0 4 0L 96 0Q 100 0 100 4L 100 66Q 100 70 96 70L 4 70Q 0 70 0 66Z" stroke="rgba(33,41,48,1)" stroke-width="2" fill-opacity="1" fill="#ffffff"></path><g id="SvgjsG1095"><text id="SvgjsText1096" font-family="微软雅黑" text-anchor="middle" font-size="13px" width="80px" fill="#323232" font-weight="400" align="middle" lineHeight="125%" anchor="middle" family="微软雅黑" size="13px" weight="400" font-style="" opacity="1" y="24.375" transform="rotate(0)"><tspan id="SvgjsTspan1097" dy="16" x="50"><tspan id="SvgjsTspan1098" style="text-decoration:;">Put</tspan></tspan></text></g></g><g id="SvgjsG1099"><path id="SvgjsPath1100" d="M453.86160714285757 96.0111607142855L453.86160714285757 121.79687499999989L227.79017857142918 121.79687499999989L227.79017857142918 144.98258928571425" stroke="#323232" stroke-width="2" fill="none" marker-end="url(#SvgjsMarker1101)"></path></g><g id="SvgjsG1103"><path id="SvgjsPath1104" d="M453.86160714285757 96.0111607142855L453.86160714285757 121.79687499999989L378.5044642857149 121.79687499999989L378.5044642857149 144.98258928571425" stroke="#323232" stroke-width="2" fill="none" marker-end="url(#SvgjsMarker1105)"></path></g><g id="SvgjsG1107"><path id="SvgjsPath1108" d="M453.86160714285757 96.0111607142855L453.86160714285757 121.79687499999983L529.2187500000003 121.79687499999983L529.2187500000003 144.98258928571414" stroke="#323232" stroke-width="2" fill="none" marker-end="url(#SvgjsMarker1109)"></path></g><g id="SvgjsG1111"><path id="SvgjsPath1112" d="M453.86160714285757 96.0111607142855L453.86160714285757 121.79687499999986L679.9330357142859 121.79687499999986L679.9330357142859 144.9825892857142" stroke="#323232" stroke-width="2" fill="none" marker-end="url(#SvgjsMarker1113)"></path></g><g id="SvgjsG1115"><path id="SvgjsPath1116" d="M227.79017857142918 219.58258928571428L227.79017857142918 298.5111607142858L456.00446428571445 298.5111607142858L456.00446428571445 374.83973214285726" stroke="#323232" stroke-width="2" fill="none" marker-end="url(#SvgjsMarker1117)"></path></g><g id="SvgjsG1119"><path id="SvgjsPath1120" d="M378.5044642857149 219.58258928571428L378.5044642857149 298.5111607142858L456.00446428571445 298.5111607142858L456.00446428571445 374.83973214285726" stroke="#323232" stroke-width="2" fill="none" marker-end="url(#SvgjsMarker1121)"></path></g><g id="SvgjsG1123"><path id="SvgjsPath1124" d="M529.2187500000003 219.58258928571416L529.2187500000003 298.5111607142857L456.00446428571445 298.5111607142857L456.00446428571445 374.83973214285726" stroke="#323232" stroke-width="2" fill="none" marker-end="url(#SvgjsMarker1125)"></path></g><g id="SvgjsG1127"><path id="SvgjsPath1128" d="M679.9330357142859 219.58258928571422L679.9330357142859 298.5111607142858L456.00446428571445 298.5111607142858L456.00446428571445 374.83973214285726" stroke="#323232" stroke-width="2" fill="none" marker-end="url(#SvgjsMarker1129)"></path></g><g id="SvgjsG1131" transform="translate(702.3231456043953,378.43973214285734)"><path id="SvgjsPath1132" d="M 0 4Q 0 0 4 0L 96 0Q 100 0 100 4L 100 66Q 100 70 96 70L 4 70Q 0 70 0 66Z" stroke="rgba(33,41,48,1)" stroke-width="2" fill-opacity="1" fill="#ffffff"></path><g id="SvgjsG1133"><text id="SvgjsText1134" font-family="微软雅黑" text-anchor="middle" font-size="13px" width="80px" fill="#323232" font-weight="400" align="middle" lineHeight="125%" anchor="middle" family="微软雅黑" size="13px" weight="400" font-style="" opacity="1" y="24.375" transform="rotate(0)"><tspan id="SvgjsTspan1135" dy="16" x="50"><tspan id="SvgjsTspan1136" style="text-decoration:;">SQL执行器</tspan></tspan></text></g></g><g id="SvgjsG1137"><path id="SvgjsPath1138" d="M507.00446428571445 413.43973214285734L604.1638049450548 413.43973214285734L604.1638049450548 413.43973214285734L698.7231456043953 413.43973214285734" stroke="#323232" stroke-width="2" fill="none" marker-end="url(#SvgjsMarker1139)"></path></g><g id="SvgjsG1141" transform="translate(853.8616071428571,378.43973214285734)"><path id="SvgjsPath1142" d="M 0 4Q 0 0 4 0L 96 0Q 100 0 100 4L 100 66Q 100 70 96 70L 4 70Q 0 70 0 66Z" stroke="rgba(33,41,48,1)" stroke-width="2" fill-opacity="1" fill="#ffffff"></path><g id="SvgjsG1143"><text id="SvgjsText1144" font-family="微软雅黑" text-anchor="middle" font-size="13px" width="80px" fill="#323232" font-weight="400" align="middle" lineHeight="125%" anchor="middle" family="微软雅黑" size="13px" weight="400" font-style="" opacity="1" y="24.375" transform="rotate(0)"><tspan id="SvgjsTspan1145" dy="16" x="50"><tspan id="SvgjsTspan1146" style="text-decoration:;">数据库连接池</tspan></tspan></text></g></g><g id="SvgjsG1147"><path id="SvgjsPath1148" d="M803.3231456043953 413.43973214285734L828.0923763736262 413.43973214285734L828.0923763736262 413.43973214285734L850.2616071428572 413.43973214285734" stroke="#323232" stroke-width="2" fill="none" marker-end="url(#SvgjsMarker1149)"></path></g></svg>